<svg width="19" height="19" viewBox="0 0 19 19" fill="none" xmlns="http://www.w3.org/2000/svg">
<path fill-rule="evenodd" clip-rule="evenodd" d="M18.4987 9.24936C18.4987 4.14148 14.3572 0 9.24936 0C4.14148 0 0 4.14148 0 9.24936C0 13.8656 3.38189 17.6922 7.80429 18.387V11.9236H5.45518V9.24936H7.80429V7.21112C7.80429 4.89323 9.18563 3.61204 11.298 3.61204C12.3099 3.61204 13.3687 3.79283 13.3687 3.79283V6.06911H12.2019C11.0535 6.06911 10.6944 6.7819 10.6944 7.51418V9.24928H13.2593L12.8497 11.9236H10.6944V18.3868C15.1168 17.6935 18.4986 13.8668 18.4986 9.24928L18.4987 9.24936Z" fill="white"/>
</svg>
