<svg width="19" height="19" viewBox="0 0 19 19" fill="none" xmlns="http://www.w3.org/2000/svg">
<path d="M9.25804 4.5196C9.09537 4.5196 8.93447 4.52789 8.77595 4.54413C8.61742 4.56037 8.46108 4.58443 8.30742 4.61601C8.15375 4.6476 8.0028 4.68671 7.85489 4.73288L7.42072 4.89229L7.00737 5.09189L6.6173 5.32924L6.25284 5.60185L5.91652 5.90735L5.61073 6.24337L5.33782 6.60742L5.10017 6.99713L4.90047 7.41001C4.84043 7.55123 4.78703 7.69602 4.74081 7.84381C4.69459 7.99161 4.65547 8.14249 4.62382 8.29599C4.59218 8.44948 4.56812 8.60563 4.55182 8.76405C4.53553 8.92246 4.52734 9.08318 4.52734 9.24567C4.52734 9.40816 4.53564 9.56888 4.55182 9.72729C4.56791 9.88445 4.59194 10.0407 4.62382 10.1954C4.65547 10.3495 4.69459 10.4998 4.74081 10.6476C4.78703 10.7954 4.84037 10.9401 4.90047 11.0814L5.10017 11.4943L5.33782 11.8839L5.61073 12.248L5.91652 12.5841L6.25284 12.8896L6.6173 13.1622L7.00737 13.3995L7.42072 13.5991L7.85489 13.7585L8.30742 13.8754C8.46228 13.9073 8.61866 13.9313 8.77595 13.9474C8.93613 13.9637 9.09704 13.9719 9.25804 13.9718C9.42072 13.9718 9.58162 13.9635 9.74009 13.9474C9.89738 13.9313 10.0538 13.9073 10.2086 13.8754L10.6612 13.7585L11.0954 13.5991L11.5087 13.3995L11.8988 13.1622L12.2632 12.8896L12.5996 12.5841L12.9055 12.248L13.1783 11.8839L13.416 11.4943L13.6157 11.0814L13.7753 10.6476C13.8215 10.4998 13.8607 10.3489 13.8923 10.1954L13.9643 9.72724C13.9806 9.56883 13.9888 9.40811 13.9888 9.24561C13.9888 9.08311 13.9806 8.92239 13.9643 8.76398C13.9482 8.60685 13.9242 8.45064 13.8923 8.29593C13.8607 8.14185 13.8215 7.99161 13.7753 7.84375L13.6157 7.40996L13.416 6.99706L13.1783 6.60736L12.9055 6.2433L12.5996 5.90728L12.2632 5.60178L11.8988 5.32918L11.5087 5.09184L11.0954 4.89224L10.6612 4.73282L10.2086 4.61596L9.74009 4.54407C9.57993 4.52771 9.41903 4.51958 9.25804 4.5196ZM9.25804 6.15086C9.36561 6.15086 9.47174 6.15619 9.57628 6.16674L9.88446 6.21338L10.1821 6.28923L10.4672 6.39277L10.7382 6.52256L10.993 6.67693L11.2313 6.85454L11.4509 7.05378L11.6503 7.27317L11.8281 7.51117L11.9826 7.76635L12.1124 8.03719C12.1514 8.12988 12.186 8.22487 12.2161 8.32201C12.2462 8.41914 12.2715 8.5184 12.292 8.6195C12.3124 8.7206 12.3276 8.82349 12.3386 8.92797L12.3545 9.24597C12.3545 9.35341 12.3492 9.45948 12.3386 9.56403C12.3281 9.66857 12.3126 9.77144 12.292 9.87249C12.2714 9.97353 12.2461 10.0728 12.2161 10.17L12.1124 10.4548L11.9826 10.7256L11.8281 10.9808L11.6503 11.2188L11.4509 11.4382L11.2313 11.6375L10.993 11.8151L10.7382 11.9694L10.4672 12.0992L10.1821 12.2028L9.88446 12.2786L9.57628 12.3252C9.47052 12.3358 9.36428 12.3411 9.25799 12.3411C9.15166 12.3411 9.04541 12.3358 8.93963 12.3252L8.63146 12.2786C8.5303 12.2581 8.43097 12.2327 8.33372 12.2028L8.04868 12.0992L7.77767 11.9694L7.52284 11.8151L7.2846 11.6375L7.06497 11.4382L6.86556 11.2188L6.68776 10.9808L6.53321 10.7256L6.40342 10.4548L6.29971 10.17L6.22386 9.87249L6.17722 9.56403C6.16661 9.45834 6.16131 9.35219 6.16133 9.24597C6.16131 9.13976 6.16661 9.03363 6.17722 8.92797C6.18771 8.82349 6.20329 8.72054 6.22386 8.6195C6.24422 8.51916 6.26955 8.41988 6.29978 8.32206L6.40349 8.03724L6.53327 7.76642L6.68783 7.51124L6.86561 7.27323L7.06503 7.05384L7.28465 6.8546L7.52289 6.677L7.77772 6.52261L8.04873 6.39282C8.14201 6.35365 8.23717 6.3191 8.33384 6.28929L8.63158 6.21344C8.73274 6.19293 8.83575 6.17729 8.93975 6.1668C9.04554 6.15621 9.15173 6.15085 9.25804 6.15086Z" fill="white"/>
<path d="M14.1792 3.17578C14.1417 3.17578 14.1042 3.17768 14.0668 3.18147C14.0294 3.18525 13.9923 3.1909 13.9554 3.19842C13.9187 3.20593 13.8822 3.21528 13.8464 3.22645C13.8104 3.23762 13.7752 3.2506 13.7405 3.26532C13.706 3.28007 13.6722 3.29655 13.6392 3.31469C13.6062 3.3328 13.5742 3.35256 13.5432 3.3739C13.5121 3.39525 13.4822 3.41815 13.4535 3.44252C13.4248 3.46687 13.3973 3.49264 13.3711 3.51974C13.345 3.54686 13.3202 3.57529 13.2968 3.6049C13.2734 3.63452 13.2516 3.66529 13.2313 3.69711C13.211 3.72891 13.1924 3.7617 13.1753 3.79537C13.1583 3.82907 13.1429 3.8636 13.1293 3.89885C13.1157 3.93407 13.1039 3.96998 13.0937 4.0064C13.0837 4.04283 13.0755 4.07974 13.0692 4.11699C13.0628 4.15423 13.0583 4.19177 13.0556 4.22948C13.0536 4.25617 13.0527 4.28294 13.0527 4.30971C13.0527 4.34753 13.0545 4.38533 13.0584 4.42297C13.0621 4.46058 13.0678 4.49798 13.0752 4.53503C13.0827 4.57207 13.0919 4.60873 13.103 4.64484C13.1141 4.68096 13.127 4.71651 13.1416 4.75133C13.1563 4.78617 13.1726 4.82025 13.1907 4.85345C13.2087 4.88663 13.2283 4.91889 13.2495 4.9501C13.2707 4.98129 13.2935 5.01139 13.3176 5.0403C13.3419 5.06923 13.3675 5.09692 13.3944 5.12327C13.4214 5.14961 13.4496 5.17457 13.4791 5.19806C13.5085 5.22157 13.5391 5.24358 13.5707 5.26402C13.6023 5.28446 13.6349 5.30329 13.6683 5.32044C13.7019 5.3376 13.7362 5.35307 13.7711 5.36677C13.8062 5.38048 13.8418 5.3924 13.878 5.40251C13.9142 5.41261 13.9508 5.42088 13.9878 5.42728C14.0248 5.43372 14.0622 5.43829 14.0996 5.44097C14.1262 5.44288 14.1528 5.44381 14.1794 5.44383C14.2169 5.44383 14.2545 5.44195 14.2919 5.43819C14.3291 5.43441 14.3664 5.42876 14.4031 5.42124C14.44 5.41374 14.4764 5.40438 14.5123 5.39321C14.5482 5.38204 14.5835 5.36906 14.6181 5.35434C14.6526 5.3396 14.6865 5.32315 14.7194 5.30502C14.7524 5.2869 14.7844 5.26711 14.8155 5.24576C14.8465 5.22442 14.8764 5.20154 14.9052 5.1772C14.9338 5.15283 14.9613 5.12705 14.9875 5.09992C15.0137 5.0728 15.0385 5.04437 15.0618 5.01476C15.0852 4.98514 15.107 4.95437 15.1273 4.92255C15.1476 4.89074 15.1663 4.85792 15.1833 4.82424C15.2004 4.79053 15.2158 4.756 15.2294 4.72076C15.243 4.68552 15.2549 4.64963 15.2649 4.6132C15.2749 4.57678 15.2831 4.53987 15.2895 4.50261C15.296 4.46537 15.3005 4.42782 15.303 4.39013C15.305 4.36342 15.306 4.33667 15.306 4.30989C15.306 4.27209 15.3041 4.23431 15.3003 4.19669C15.2966 4.15908 15.291 4.12168 15.2835 4.08463C15.276 4.04758 15.2667 4.01093 15.2556 3.97482C15.2444 3.9387 15.2316 3.90315 15.217 3.86833C15.2023 3.83349 15.186 3.79941 15.168 3.76621C15.15 3.73303 15.1304 3.70077 15.1092 3.66956C15.0879 3.63834 15.0651 3.60823 15.041 3.5793C15.0167 3.55038 14.9911 3.52268 14.9643 3.49634C14.9373 3.47 14.909 3.44504 14.8796 3.42154C14.8502 3.39805 14.8196 3.37606 14.788 3.35564C14.7564 3.3352 14.7238 3.31637 14.6903 3.29922C14.6567 3.28206 14.6224 3.26659 14.5875 3.25289C14.5525 3.23918 14.5168 3.22726 14.4806 3.21715C14.4445 3.20702 14.4078 3.19874 14.3708 3.19231C14.3338 3.1859 14.2965 3.18134 14.259 3.17868C14.2324 3.17678 14.2058 3.17578 14.1792 3.17578Z" fill="white"/>
<path d="M8.36025 0.000172363C7.84573 -0.000657382 7.38656 0.00147588 6.97409 0.00728358L5.86825 0.0369149C5.54065 0.0511379 5.25121 0.0696858 4.9914 0.0936872C4.8615 0.105658 4.73895 0.119051 4.62279 0.133808C4.51225 0.14774 4.40202 0.163962 4.29216 0.182463C4.18755 0.200243 4.08829 0.219443 3.99311 0.240303C3.89795 0.261164 3.80703 0.283684 3.71932 0.307863C3.63358 0.331507 3.5485 0.357514 3.4642 0.385853C3.38159 0.413706 3.30099 0.443219 3.2214 0.474747C3.06222 0.537803 2.90696 0.608561 2.74706 0.687855C2.62403 0.748895 2.51036 0.810705 2.40239 0.876132C2.29442 0.941558 2.19212 1.01066 2.09197 1.08592C1.98883 1.16381 1.88941 1.24651 1.79406 1.33376C1.69438 1.42455 1.59257 1.5244 1.48678 1.636C1.35386 1.77545 1.23835 1.90546 1.13583 2.03305C1.08457 2.09682 1.03656 2.15989 0.991346 2.2233C0.946628 2.28578 0.903879 2.34966 0.86316 2.41482C0.822863 2.47943 0.784698 2.54521 0.748191 2.61289C0.711116 2.68173 0.676077 2.75165 0.643118 2.82255C0.575678 2.96739 0.512741 3.12337 0.449922 3.29749C0.40332 3.4262 0.361588 3.55664 0.324818 3.6885C0.287306 3.82327 0.253941 3.96426 0.22419 4.11673C0.194441 4.26921 0.168483 4.4332 0.145667 4.61454C0.121081 4.81332 0.101439 5.01268 0.0867604 5.21244C0.070167 5.43206 0.0564181 5.67374 0.0451581 5.94273L0.01849 6.83713L0.00414836 7.92739L0 9.2452L0.0121488 11.1616L0.050077 12.6135L0.0792934 13.1806L0.115799 13.6507C0.127502 13.7773 0.142143 13.9036 0.159713 14.0296C0.175713 14.1415 0.1929 14.2394 0.21139 14.3242C0.248908 14.4965 0.293271 14.6672 0.344375 14.836C0.393307 14.9976 0.449264 15.1569 0.512088 15.3136C0.57384 15.4671 0.641399 15.6151 0.714885 15.7576C0.788372 15.9 0.867783 16.037 0.953122 16.1685C1.03846 16.3 1.12972 16.4261 1.22715 16.5469C1.32447 16.6676 1.42798 16.7831 1.53728 16.8932C1.64673 17.0034 1.76218 17.1082 1.88385 17.2079C2.00694 17.3088 2.13492 17.4036 2.26727 17.4918C2.39012 17.5739 2.51167 17.6492 2.63411 17.7182C2.75654 17.7873 2.88004 17.8499 3.00699 17.9069C3.13392 17.9638 3.26407 18.0151 3.40002 18.0612C3.53596 18.1073 3.67761 18.1483 3.82731 18.1846C3.977 18.2211 4.13546 18.253 4.30318 18.2809C4.47089 18.3087 4.65016 18.3326 4.8417 18.3532C5.03324 18.3737 5.23758 18.3907 5.45715 18.405C5.67671 18.4192 5.91139 18.4305 6.16355 18.4396C6.55309 18.4538 7.14275 18.462 7.82273 18.4652L10.024 18.4607L12.1086 18.4315L12.9012 18.4092L13.4175 18.3827C13.5283 18.3736 13.6367 18.3629 13.7414 18.3505C13.8461 18.338 13.9493 18.3238 14.0499 18.3075C14.1503 18.2913 14.2486 18.2732 14.3451 18.253C14.4405 18.2331 14.5355 18.2108 14.6298 18.1864C14.7232 18.1627 14.8153 18.1357 14.9065 18.107C14.9976 18.0785 15.0879 18.0476 15.1775 18.0143C15.2677 17.9809 15.357 17.9453 15.4455 17.9077C15.5345 17.8696 15.6234 17.8292 15.7127 17.7861C15.8498 17.7201 15.9601 17.665 16.057 17.6113C16.1482 17.5613 16.2359 17.5055 16.3198 17.4439C16.4026 17.383 16.4848 17.3137 16.5796 17.2263C16.6744 17.1389 16.7819 17.0337 16.9149 16.9006C17.0319 16.7837 17.1304 16.6821 17.2155 16.5898C17.3005 16.4974 17.3722 16.4143 17.435 16.3341C17.4949 16.2581 17.5506 16.1789 17.6021 16.097C17.6524 16.017 17.6986 15.9338 17.7456 15.8417C17.8166 15.7031 17.8796 15.5747 17.936 15.4507C17.9909 15.3313 18.041 15.2097 18.0862 15.0864C18.1308 14.9639 18.1694 14.8395 18.2019 14.7133C18.2353 14.5836 18.2641 14.4465 18.289 14.2962C18.3138 14.1459 18.3349 13.9823 18.3531 13.7997C18.3714 13.6171 18.3869 13.4152 18.4005 13.1884L18.4368 12.4271L18.4677 11.4802L18.49 10.4254L18.4984 9.32237L18.4787 7.15602L18.4522 6.18571L18.4161 5.3526L18.371 4.70307C18.3547 4.52233 18.337 4.37998 18.3183 4.28373C18.2975 4.17739 18.2744 4.07155 18.2488 3.96626C18.2239 3.86382 18.1965 3.762 18.1667 3.66089C18.1377 3.56237 18.1061 3.46461 18.0721 3.36771C18.0384 3.27201 18.0027 3.1783 17.9653 3.08663C17.9281 2.99495 17.8876 2.90541 17.8456 2.81776C17.8034 2.73011 17.7594 2.64459 17.7131 2.56103C17.6668 2.47747 17.6186 2.39599 17.5681 2.31651C17.5177 2.23704 17.4652 2.15958 17.4105 2.0842C17.3561 2.00906 17.2994 1.93564 17.2404 1.86404C17.1817 1.79284 17.1208 1.72351 17.0577 1.65614C16.9948 1.58888 16.9296 1.52362 16.8626 1.46047C16.7954 1.39729 16.7263 1.33613 16.655 1.27698C16.5833 1.21765 16.51 1.16055 16.4347 1.10578C16.3587 1.05044 16.2812 0.997438 16.2019 0.946834C16.1216 0.895509 16.0399 0.846576 15.9567 0.800098C15.8721 0.752843 15.7861 0.708021 15.699 0.665691C15.5542 0.595346 15.4203 0.532943 15.289 0.477592C15.1598 0.422659 15.0281 0.37387 14.8944 0.331391C14.7599 0.289017 14.6199 0.25269 14.4658 0.22134C14.3117 0.18999 14.1437 0.163856 13.9535 0.141631C13.7634 0.119408 13.5511 0.101452 13.3081 0.0865181C13.0653 0.0715838 12.7921 0.059849 12.4802 0.0503669L11.4203 0.0266623L10.0787 0.0108392L8.36084 0.000289905L8.36025 0.000172363ZM9.25244 1.63001L11.7298 1.64412L12.6644 1.66213C12.9217 1.66936 13.1181 1.67784 13.2332 1.68762C13.3833 1.70024 13.526 1.71606 13.6627 1.73503C13.7937 1.75313 13.9242 1.77564 14.0537 1.80253C14.1782 1.8286 14.2969 1.85823 14.4106 1.89165C14.5242 1.92508 14.6327 1.96254 14.7368 2.00396C14.841 2.04539 14.9405 2.09095 15.0363 2.14086C15.1314 2.19038 15.2238 2.24488 15.3131 2.30412C15.402 2.36309 15.4876 2.42663 15.5709 2.49507C15.654 2.56352 15.7347 2.63688 15.8134 2.71535C15.8967 2.79814 15.9734 2.88247 16.044 2.96946C16.1144 3.05593 16.1797 3.14655 16.2391 3.24083C16.2994 3.33646 16.3536 3.43572 16.4017 3.53803C16.4507 3.64234 16.4948 3.75256 16.5344 3.86972C16.5741 3.98689 16.6093 4.1114 16.6405 4.24445C16.6732 4.3855 16.7006 4.52773 16.7227 4.67084C16.7463 4.82256 16.7666 4.98434 16.7838 5.15756C16.8009 5.33078 16.8152 5.51551 16.8269 5.71315C16.8362 5.87168 16.8445 6.08088 16.8514 6.32794L16.8687 7.17037L16.882 9.23388L16.8669 11.2954L16.8488 12.1354L16.8238 12.7464C16.8066 13.0325 16.7883 13.273 16.7665 13.4822C16.7556 13.5869 16.7436 13.6838 16.7305 13.7746C16.7182 13.8604 16.7035 13.9459 16.6867 14.0309C16.6713 14.1085 16.6534 14.1856 16.633 14.2621C16.6136 14.335 16.5917 14.4073 16.5674 14.4789C16.5428 14.5507 16.5162 14.6217 16.4875 14.6919C16.457 14.7661 16.4249 14.8395 16.3911 14.9122C16.3611 14.977 16.3295 15.0402 16.2961 15.1016C16.263 15.1625 16.2278 15.2221 16.1908 15.2806C16.1541 15.3385 16.1156 15.3948 16.0752 15.4493C16.0352 15.5035 15.9931 15.5563 15.9492 15.6075C15.9055 15.6587 15.8599 15.708 15.8125 15.7558C15.7651 15.8034 15.7159 15.8494 15.6649 15.8939C15.614 15.9383 15.5611 15.9811 15.5064 16.0222C15.4518 16.0633 15.3951 16.1028 15.3367 16.1405C15.2781 16.1784 15.2179 16.2147 15.1556 16.2493C15.0933 16.2839 15.029 16.3169 14.963 16.3484C14.8957 16.3804 14.8276 16.4103 14.7585 16.4382C14.6872 16.467 14.6151 16.4937 14.5423 16.5185C14.394 16.569 14.2378 16.6133 14.0733 16.6514C13.9019 16.6911 13.7288 16.7235 13.5547 16.7486C13.4876 16.7583 13.3337 16.7676 13.1133 16.776L12.2732 16.7994L9.89142 16.8304L7.39847 16.8342L6.41945 16.8238L5.78374 16.804L5.31497 16.771C5.16943 16.7588 5.03406 16.7452 4.90725 16.7297C4.78043 16.7142 4.66232 16.697 4.5512 16.6775C4.44589 16.6594 4.34124 16.6376 4.2374 16.6124C4.14272 16.5894 4.04901 16.5625 3.9565 16.532C3.86731 16.5023 3.78202 16.4697 3.69906 16.4338C3.61609 16.398 3.53549 16.3587 3.45566 16.3158C3.37583 16.2729 3.29684 16.2263 3.21695 16.1755C3.15669 16.1372 3.09843 16.0984 3.04237 16.0574C2.98631 16.0163 2.93213 15.9753 2.87999 15.9324C2.82783 15.8895 2.77776 15.8453 2.72946 15.7998C2.68148 15.7545 2.63515 15.7075 2.59055 15.6589C2.5461 15.6104 2.50361 15.5605 2.46283 15.5089C2.4219 15.457 2.3829 15.4035 2.34592 15.3488C2.30837 15.2932 2.27285 15.2363 2.23942 15.1782C2.20564 15.1195 2.17352 15.0589 2.143 14.9962C2.11196 14.9325 2.083 14.8677 2.05618 14.8021C2.02892 14.7351 2.00307 14.6662 1.97878 14.595C1.93018 14.4524 1.88752 14.3007 1.85042 14.1389C1.81332 13.9772 1.78167 13.8053 1.75488 13.6221C1.7281 13.4391 1.70653 13.2448 1.68934 13.0385C1.67666 12.8866 1.66659 12.6498 1.65888 12.3511L1.64276 11.2888L1.64868 8.58081L1.69533 5.99317L1.73089 5.08147L1.75103 4.78011C1.75803 4.69964 1.76526 4.64002 1.77266 4.60422C1.79708 4.48647 1.82167 4.37689 1.84709 4.27431C1.87085 4.17753 1.89727 4.08144 1.92633 3.98612C1.95395 3.89616 1.98305 3.81189 2.01416 3.73206C2.04416 3.65472 2.0776 3.57878 2.11438 3.50443C2.15028 3.43213 2.18887 3.36291 2.23076 3.29553C2.27267 3.22815 2.31789 3.16279 2.36719 3.09777C2.4165 3.03276 2.46959 2.96858 2.52737 2.90351C2.58515 2.83844 2.64756 2.77272 2.71524 2.70498C2.79411 2.62566 2.87624 2.54963 2.96141 2.47711C3.04184 2.40869 3.1257 2.34442 3.21269 2.28457C3.2982 2.2253 3.38592 2.17257 3.47724 2.12408C3.56857 2.07561 3.6635 2.03181 3.76336 1.99241C3.86321 1.953 3.96811 1.91773 4.07922 1.88573C4.19597 1.85299 4.314 1.82505 4.43302 1.80199C4.55818 1.77746 4.69112 1.75606 4.83304 1.7374C4.97498 1.71873 5.12598 1.70261 5.28742 1.68862C5.40002 1.67891 5.59404 1.67025 5.84952 1.66296L6.77935 1.64459L9.25286 1.62947L9.25244 1.63001Z" fill="white"/>
</svg>
