<svg width="75" height="90" viewBox="0 0 75 90" fill="none" xmlns="http://www.w3.org/2000/svg">
<path d="M74.1154 45.0003C74.1154 59.8354 74.1154 74.6695 74.1154 89.5027C74.1154 90.0532 74.1787 89.9982 73.6285 89.9982H0.475063C-0.0531798 89.9982 0.00459677 90.056 0.00459677 89.5192C0.00276259 59.8418 0.0018455 30.1634 0.0018455 0.484114C0.0018455 -0.0499039 -0.0559311 0.00239688 0.475063 0.00239688H73.6257C74.176 0.00239688 74.1127 -0.0636672 74.1127 0.497877C74.1163 15.3348 74.1173 30.1689 74.1154 45.0003ZM73.2515 45.0361V1.42553C73.2515 0.874993 73.3121 0.924541 72.7646 0.924541H1.42425C0.851987 0.924541 0.923519 0.86123 0.923519 1.44204C0.923519 30.4827 0.923519 59.5234 0.923519 88.564C0.923519 89.1421 0.854738 89.0788 1.42425 89.0788H72.7646C73.3148 89.0788 73.2515 89.1421 73.2515 88.5806V45.0361Z" fill="white"/>
<path d="M27.5137 40.8755C27.2386 40.8755 27.046 40.8755 26.8369 40.8755C26.7186 40.8755 26.6636 40.8287 26.6498 40.7048C26.6031 40.2534 26.6333 40.2148 27.0818 40.2148H36.6149C37.0194 40.2148 37.0194 40.2148 37.0084 40.6085C37.0084 40.87 37.0084 40.8837 36.7195 40.8837C36.3123 40.8837 35.8941 40.8837 35.4979 40.8837C35.4053 40.8764 35.3125 40.8961 35.231 40.9406C35.1494 40.9851 35.0825 41.0524 35.0385 41.1342C34.5396 41.9105 34.0397 42.6858 33.539 43.4602L30.331 48.4013C29.5854 49.5547 28.8454 50.708 28.0943 51.8586C27.2029 53.235 26.2922 54.5865 25.4063 55.9629C24.5204 57.3392 23.6895 58.633 22.8146 59.9542C22.168 60.9342 21.5352 61.9224 20.8887 62.9079L18.7262 66.2111C18.6285 66.3621 18.5482 66.5237 18.4868 66.6928C18.7262 66.6928 18.9298 66.6928 19.1334 66.6928C19.271 66.6928 19.3232 66.7478 19.3342 66.8882C19.3755 67.3975 19.3672 67.4112 18.8693 67.4112H9.44068C9.03074 67.4112 9.03074 67.4112 9.03624 66.9928C9.03624 66.6983 9.03624 66.6955 9.32787 66.6928C9.73506 66.6928 10.1533 66.6928 10.5494 66.6928C10.6357 66.7007 10.7224 66.6827 10.7984 66.641C10.8744 66.5993 10.9362 66.5359 10.9759 66.4588C11.6912 65.3385 12.4148 64.2264 13.1384 63.1116L16.2528 58.3054L18.6712 54.5728C19.6653 53.0478 20.6603 51.5219 21.6563 49.9951C22.3588 48.9215 23.0604 47.8462 23.761 46.7689C24.6249 45.4458 25.487 44.1209 26.3472 42.7941L27.3157 41.3021C27.4026 41.1706 27.4694 41.0268 27.5137 40.8755Z" fill="white"/>
<path d="M16.8311 22.8159V35.4919C16.8311 35.569 16.8311 35.646 16.8311 35.7231C16.8311 36.0479 16.8311 36.0507 16.5009 36.0507H8.74784C8.63229 36.0507 8.47271 36.0975 8.42044 35.9626C8.34944 35.786 8.34944 35.5887 8.42044 35.4121C8.45621 35.3185 8.56626 35.3322 8.6543 35.3322H9.67777C10.0299 35.3322 10.0299 35.3322 10.0327 34.9634V9.97465C10.0327 9.46265 10.0795 9.51771 9.57047 9.51496C9.24032 9.51496 8.91017 9.51496 8.58276 9.51496C8.4452 9.51496 8.37367 9.46265 8.38192 9.31952C8.3833 9.29752 8.3833 9.27545 8.38192 9.25345C8.38192 8.85431 8.38192 8.85156 8.7671 8.85156H18.3057C18.4323 8.85156 18.4846 8.91212 18.4791 9.03324C18.4777 9.04421 18.4777 9.0553 18.4791 9.06627C18.5066 9.5067 18.5011 9.50945 18.0691 9.5122C17.772 9.5122 17.4749 9.5122 17.1777 9.5122C16.8806 9.5122 16.8338 9.52872 16.8311 9.8728C16.8311 9.94988 16.8311 10.027 16.8311 10.104V22.8159Z" fill="white"/>
<path d="M56.0873 35.4946C55.441 35.6558 54.786 35.7799 54.1256 35.8663C53.1825 36 52.2305 36.0598 51.2781 36.0452C50.2635 36.0162 49.2522 35.9159 48.2517 35.7451C47.3136 35.5806 46.3887 35.3488 45.4839 35.0515C44.1537 34.6274 42.9072 33.9754 41.7999 33.1246C41.0005 32.5414 40.3126 31.8187 39.7695 30.9913C39.3465 30.3216 39.0655 29.572 38.9441 28.7891C38.9039 28.4964 38.8855 28.201 38.8891 27.9055V9.97465C38.8891 9.46265 38.9386 9.51771 38.4296 9.51496C38.0995 9.51496 37.7693 9.51496 37.4392 9.51496C37.3044 9.51496 37.2301 9.46541 37.2383 9.32227C37.241 9.30033 37.241 9.27815 37.2383 9.2562C37.2246 8.85431 37.2246 8.85156 37.6235 8.85156H46.9393C46.9943 8.85156 47.0494 8.85156 47.1044 8.85156C47.2585 8.85156 47.3135 8.90937 47.319 9.06352C47.341 9.50394 47.3382 9.5122 46.9118 9.51496C46.5927 9.51496 46.2735 9.51496 45.9571 9.51496C45.6407 9.51496 45.682 9.51496 45.6682 9.815C45.6682 9.84803 45.6682 9.88106 45.6682 9.91409C45.6682 15.8654 45.6682 21.8176 45.6682 27.7707C45.6918 28.9836 46.0354 30.1687 46.6642 31.206C47.1402 32.0243 47.745 32.7604 48.4553 33.3861C49.0713 33.9352 49.7706 34.383 50.527 34.7129C51.1377 34.9866 51.776 35.1943 52.4308 35.3322C52.9848 35.4666 53.5529 35.5341 54.1229 35.5332C54.5493 35.5194 54.9785 35.5194 55.4077 35.5332C55.6361 35.5332 55.8534 35.4093 56.0873 35.4946Z" fill="white"/>
<path d="M65.2703 60.1067V67.0352C65.2703 67.0902 65.2703 67.1453 65.2703 67.2003C65.2703 67.3545 65.2152 67.426 65.0584 67.415C64.9814 67.415 64.9044 67.415 64.8273 67.415H38.6903C38.2418 67.415 38.2639 67.4618 38.2666 66.9829C38.2666 66.7076 38.2666 66.7076 38.5692 66.7076C38.9104 66.7076 39.2516 66.7076 39.5927 66.7076C39.9339 66.7076 39.9146 66.7076 39.9146 66.3718C39.9146 65.8763 39.9146 65.3808 39.9146 64.8853C39.9146 61.8574 39.9394 58.8129 39.9146 55.7767C39.8983 55.2987 40.0021 54.8243 40.2165 54.3967C40.4308 53.9692 40.7489 53.6023 41.1417 53.3296C41.747 52.8702 42.4661 52.5847 43.2216 52.5038C43.8902 52.4268 44.5587 52.4763 45.2273 52.457C45.6455 52.457 46.0527 52.457 46.4819 52.457C46.7102 52.457 46.7157 52.457 46.724 52.702C46.724 52.7901 46.724 52.8782 46.724 52.9773V66.314C46.724 66.7516 46.6937 66.7241 47.1339 66.7241C50.2594 66.7241 53.3821 66.7241 56.5047 66.7241C57.9254 66.7282 59.3312 66.4347 60.6316 65.8625C61.7321 65.3847 62.7222 64.6847 63.5397 63.8063C64.4074 62.8927 64.9872 61.744 65.207 60.5031C65.2125 60.4371 65.2125 60.3708 65.207 60.3049C65.207 60.2526 65.207 60.1975 65.207 60.1452L65.2703 60.1067Z" fill="white"/>
<path d="M65.2608 47.4025C65.0784 46.2313 64.5853 45.1305 63.8329 44.2149C62.7964 42.9661 61.4333 42.0303 59.8959 41.5118C59.1208 41.2403 58.318 41.0556 57.5023 40.9612C57.1107 40.9116 56.7166 40.884 56.322 40.8786H38.7139C38.2654 40.8786 38.2021 40.8043 38.2764 40.3639C38.2929 40.2731 38.3287 40.2235 38.4222 40.2208H65.1095C65.1314 40.217 65.1539 40.2185 65.1751 40.2252C65.1963 40.2318 65.2157 40.2434 65.2315 40.259C65.2474 40.2746 65.2593 40.2937 65.2663 40.3149C65.2733 40.336 65.2752 40.3584 65.2718 40.3804V47.2621C65.2691 47.3171 65.2636 47.3612 65.2608 47.4025Z" fill="white"/>
<path d="M58.8438 34.4993C58.918 34.3892 59.0418 34.3645 59.1409 34.3067C59.9841 33.8337 60.7383 33.217 61.3694 32.4844C61.8622 31.9085 62.275 31.2687 62.5965 30.5823C62.8798 29.971 63.0735 29.322 63.1715 28.6554C63.2131 28.3296 63.2315 28.0012 63.2265 27.6727V10.0226C63.2265 9.53813 63.2705 9.57392 62.7863 9.57392C62.4782 9.57392 62.17 9.57392 61.8619 9.57392C61.6115 9.57392 61.5868 9.53813 61.5868 9.28213C61.5868 9.2491 61.5868 9.21607 61.5868 9.18304C61.5868 8.85822 61.5868 8.85547 61.9114 8.85547H65.7632C65.7962 8.85547 65.843 8.85547 65.8595 8.87474C65.9915 9.03714 65.9145 9.22983 65.9173 9.42527C65.9173 9.54639 65.8182 9.58493 65.7109 9.58493H64.6874C64.1592 9.58493 64.2142 9.53263 64.2142 10.0666C64.2142 15.9656 64.2142 21.8618 64.2142 27.7608C64.2386 29.1699 63.7497 30.5397 62.8386 31.6145C61.7999 32.8425 60.5036 33.8265 59.0418 34.4966C59.002 34.5158 58.9606 34.5314 58.918 34.5434C58.9015 34.5269 58.8795 34.5103 58.8438 34.4993Z" fill="white"/>
<path d="M35.4336 28.5195V28.9269C35.4336 31.1804 35.4336 33.4349 35.4336 35.6902C35.4336 35.7563 35.4336 35.8224 35.4336 35.8884C35.4373 35.9103 35.4358 35.9328 35.4292 35.9541C35.4225 35.9753 35.4109 35.9946 35.3953 36.0105C35.3798 36.0263 35.3606 36.0383 35.3395 36.0453C35.3184 36.0523 35.296 36.0542 35.274 36.0508C35.197 36.0508 35.1199 36.0508 35.0429 36.0508H19.9109C19.479 36.0508 19.4267 35.9848 19.4762 35.5443C19.4762 35.415 19.5423 35.3379 19.6771 35.3351H19.9522C22.1285 35.3351 24.3047 35.3351 26.481 35.3351C27.6878 35.3397 28.8867 35.1406 30.0273 34.7461C31.302 34.3211 32.4611 33.607 33.4142 32.6595C34.1385 31.9642 34.702 31.1186 35.0649 30.1821C35.2503 29.69 35.3633 29.1735 35.4006 28.6489C35.3949 28.6263 35.395 28.6026 35.4007 28.58C35.4065 28.5575 35.4178 28.5367 35.4336 28.5195Z" fill="white"/>
<path d="M15.3467 83.0384C14.5348 83.0945 13.7198 83.0871 12.9091 83.0163C12.9091 82.9365 12.9724 82.9393 13.0191 82.9227C13.1333 82.8795 13.2306 82.8009 13.297 82.6984C13.3633 82.5959 13.3951 82.4748 13.3878 82.3529C13.3878 81.7804 13.3878 81.2078 13.3878 80.6353C13.3878 80.4811 13.3273 80.4233 13.1732 80.4233H10.2431C10.0918 80.4233 10.0257 80.4756 10.0257 80.6325C10.0257 81.2271 10.0257 81.8217 10.0257 82.4135C10.0234 82.5083 10.048 82.6019 10.0967 82.6832C10.1454 82.7646 10.2162 82.8305 10.3009 82.8732C10.3724 82.9145 10.4715 82.92 10.5127 83.0439H8.10812C8.10812 82.9448 8.17965 82.9365 8.23467 82.9117C8.34691 82.865 8.44104 82.7831 8.50301 82.6785C8.56499 82.5738 8.59149 82.4519 8.57858 82.3309C8.57858 81.2739 8.57858 80.2196 8.57858 79.1626C8.57858 78.579 8.56483 77.9982 8.57858 77.4147C8.60032 77.2613 8.57015 77.1051 8.49286 76.9709C8.41558 76.8367 8.29564 76.7323 8.15214 76.6742C8.11757 76.6529 8.0861 76.627 8.05859 76.5971C8.26219 76.476 8.46853 76.5448 8.66112 76.5338C8.85371 76.5228 9.07931 76.5338 9.28841 76.5338H9.9157H10.5292C10.5127 76.5971 10.51 76.6274 10.499 76.6329C10.0863 76.8036 10.0037 77.1201 10.0175 77.5385C10.045 78.3065 10.0175 79.0773 10.0175 79.8453C10.0175 80.1425 10.0175 80.1481 10.2926 80.1481H13.0852C13.3603 80.1481 13.3905 80.1205 13.3905 79.8453C13.3905 79.0085 13.3905 78.1726 13.3905 77.3376C13.4036 77.2049 13.3748 77.0714 13.3082 76.9558C13.2416 76.8403 13.1405 76.7486 13.0191 76.6935C12.9724 76.6714 12.9173 76.6494 12.8981 76.5916C13.0934 76.5063 14.8845 76.4815 15.3302 76.5558C15.3605 76.6494 15.2779 76.6659 15.2256 76.6907C15.1003 76.7458 14.9956 76.839 14.9264 76.9572C14.8573 77.0753 14.8272 77.2123 14.8405 77.3486C14.8551 78.9653 14.8551 80.5821 14.8405 82.1988C14.8405 82.5594 14.9285 82.8237 15.2834 82.953C15.2999 82.9668 15.3109 82.9916 15.3467 83.0384Z" fill="white"/>
<path d="M22.9281 76.4612C23.7252 76.4288 24.511 76.6589 25.1648 77.1163C25.7851 77.53 26.2187 78.1703 26.3726 78.9C26.5613 79.6617 26.5075 80.4634 26.2186 81.193C26.0689 81.571 25.8428 81.9141 25.5545 82.2006C25.2662 82.4872 24.9219 82.7111 24.543 82.8584C23.9453 83.111 23.2982 83.2249 22.6502 83.1914C21.7416 83.1877 20.864 82.8608 20.174 82.2693C19.7249 81.8725 19.4153 81.3417 19.2909 80.7553C19.1391 80.1125 19.1485 79.442 19.3184 78.8037C19.4417 78.3281 19.6801 77.8903 20.0127 77.5288C20.3452 77.1673 20.7616 76.8933 21.225 76.7309C21.4392 76.6477 21.6589 76.5797 21.8826 76.5272C22.2279 76.4692 22.5782 76.447 22.9281 76.4612ZM25.0108 79.8304C25.0091 79.59 24.9907 79.3499 24.9557 79.112C24.9411 78.7502 24.8677 78.3931 24.7384 78.055C24.6656 77.819 24.5463 77.6 24.3875 77.4109C24.2287 77.2218 24.0337 77.0664 23.814 76.9539C23.4445 76.7796 23.0346 76.7092 22.6282 76.7502C21.8551 76.8383 21.2663 77.1851 20.9774 77.9476C20.8367 78.3282 20.7443 78.7249 20.7023 79.1285C20.5818 79.9777 20.6629 80.8434 20.9389 81.6554C21.0235 81.9085 21.1638 82.1394 21.3495 82.3309C21.5352 82.5225 21.7616 82.6698 22.0119 82.762C22.3379 82.8604 22.6793 82.8977 23.0188 82.8721C23.3766 82.8641 23.7241 82.7507 24.0177 82.546C24.3114 82.3413 24.5381 82.0545 24.6696 81.7215C24.8933 81.116 25.0087 80.4759 25.0108 79.8304Z" fill="white"/>
<path d="M61.1427 80.7544C61.2083 81.1064 61.3107 81.4505 61.4481 81.7811C61.5714 82.0771 61.7737 82.3335 62.0328 82.5224C62.2919 82.7112 62.5978 82.8252 62.9172 82.8519C63.3199 82.9232 63.7333 82.9044 64.1278 82.7969C64.2895 82.7597 64.4392 82.6821 64.5628 82.5714C64.6865 82.4607 64.7801 82.3204 64.8349 82.1638C64.8862 82.0227 64.8959 81.8698 64.8627 81.7233C64.8296 81.5769 64.7549 81.4431 64.6478 81.338C64.2457 80.9341 63.7812 80.5976 63.2722 80.3415C62.675 80.0375 62.1044 79.6839 61.5664 79.2845C61.3333 79.1011 61.126 78.8873 60.9501 78.6486C60.8462 78.499 60.7735 78.3301 60.7361 78.1518C60.6988 77.9735 60.6976 77.7896 60.7327 77.6108C60.7719 77.4443 60.8482 77.2887 60.9558 77.1557C61.0635 77.0227 61.1998 76.9158 61.3545 76.8428C61.7813 76.5885 62.2692 76.4553 62.7659 76.4575C63.3034 76.4211 63.8433 76.4665 64.3672 76.5923C64.835 76.7201 65.269 76.9494 65.6382 77.264C66.0014 77.5888 66.0179 78.0898 65.663 78.5357C65.5777 78.6431 65.4787 78.811 65.3466 78.7945C65.2145 78.778 65.2393 78.5633 65.198 78.4339C65.0302 77.9054 64.8541 77.3824 64.3451 77.0713C63.8633 76.7751 63.2915 76.6608 62.7329 76.7492C62.5792 76.7592 62.428 76.7926 62.2844 76.8483C61.9268 77.0273 61.7094 77.3218 61.9736 77.7512C62.1689 78.0318 62.4211 78.2681 62.7136 78.4449C63.1814 78.7725 63.6848 79.0422 64.1691 79.3423C64.6919 79.6429 65.1713 80.0133 65.5942 80.4433C65.8682 80.7181 66.0367 81.0806 66.0702 81.4673C66.099 81.7551 66.0343 82.0444 65.8855 82.2924C65.7368 82.5404 65.5121 82.7337 65.2448 82.8437C64.9216 83.0066 64.5707 83.1074 64.2103 83.1409C63.8838 83.1825 63.5544 83.1982 63.2254 83.1877C62.5108 83.1815 61.8098 82.992 61.1894 82.6372C61.0483 82.5565 60.914 82.4644 60.7878 82.3619C60.6841 82.2695 60.6066 82.1514 60.5631 82.0195C60.5197 81.8875 60.5117 81.7464 60.5401 81.6105C60.5732 81.4328 60.6442 81.2644 60.7482 81.1167C60.8521 80.969 60.9867 80.8454 61.1427 80.7544Z" fill="white"/>
<path d="M39.6521 83.0506C39.6521 82.957 39.7209 82.9488 39.7621 82.9185C39.883 82.8427 39.9813 82.7357 40.0466 82.6088C40.112 82.4819 40.142 82.3398 40.1335 82.1973C40.1198 80.6338 40.1335 79.073 40.1335 77.5178C40.1556 77.3425 40.122 77.1648 40.0376 77.0097C39.9532 76.8546 39.8222 76.7299 39.6631 76.6534C39.6466 76.6534 39.6438 76.6176 39.6328 76.5984C39.6796 76.5075 39.7649 76.5378 39.8364 76.5378H45.9029C46.0157 76.5378 46.1588 76.4883 46.2028 76.6617C46.2875 77.0244 46.3491 77.3922 46.3872 77.7627C46.2386 77.7627 46.2303 77.6526 46.1918 77.5838C46.0876 77.3633 45.921 77.1782 45.7127 77.0515C45.5043 76.9248 45.2634 76.862 45.0198 76.8709C43.9771 76.8709 42.9316 76.8709 41.8889 76.8709C41.5835 76.8709 41.5807 76.8709 41.5807 77.1847C41.5807 77.9187 41.5807 78.6445 41.5807 79.362C41.5807 79.6373 41.5807 79.6511 41.8806 79.6511C42.6399 79.6511 43.3993 79.6318 44.1559 79.6511C44.3927 79.6636 44.6266 79.5936 44.8177 79.4531C45.0088 79.3126 45.1453 79.1102 45.2041 78.8803C45.2179 78.8308 45.2041 78.7702 45.2812 78.7537C45.3611 79.4524 45.3611 80.158 45.2812 80.8567C45.1739 80.8567 45.1931 80.7439 45.1684 80.6833C45.1081 80.4761 44.9816 80.2943 44.8081 80.166C44.6346 80.0377 44.4239 79.97 44.2082 79.9731C43.4075 79.9731 42.6042 79.9731 41.8008 79.9731C41.633 79.9731 41.5697 80.0309 41.5697 80.2016C41.5697 80.9944 41.5697 81.7844 41.5697 82.5772C41.5697 82.8029 41.5697 82.8111 41.8228 82.8111C42.8793 82.8111 43.933 82.8276 44.9895 82.8111C45.2333 82.8171 45.4736 82.7524 45.6815 82.625C45.8895 82.4975 46.0561 82.3127 46.1616 82.0927C46.1973 82.0211 46.2166 81.889 46.3266 81.933C46.4367 81.9771 46.3624 82.0817 46.3487 82.167C46.3074 82.3927 46.2744 82.6185 46.2303 82.8442C46.2028 82.9928 46.1423 83.0919 45.9552 83.0919C43.867 83.0919 41.7788 83.0919 39.6906 83.0919L39.6521 83.0506Z" fill="white"/>
<path d="M33.7351 66.6959C33.7425 66.6444 33.7361 66.5919 33.7168 66.5436C33.6975 66.4953 33.6659 66.4529 33.6251 66.4207C33.4325 66.2252 33.2564 66.016 33.0748 65.8123C32.365 65.0168 31.6359 64.2433 30.9288 63.4478C30.3401 62.7844 29.743 62.1265 29.1488 61.4658C28.3784 60.6098 27.6246 59.7399 26.8404 58.8976C26.5653 58.6031 26.5653 58.5508 26.7744 58.2205L26.8652 58.0856C27.044 57.8351 27.1403 57.8323 27.3412 58.0691C27.542 58.3058 27.7841 58.5563 28.0015 58.804C28.7003 59.5913 29.4101 60.3648 30.0979 61.1631C30.3263 61.4383 30.5739 61.6806 30.805 61.9448C31.3305 62.5476 31.867 63.1422 32.4008 63.7396C32.841 64.2295 33.2839 64.714 33.7241 65.204C34.1065 65.6279 34.489 66.049 34.8631 66.4785C34.9216 66.5508 34.9967 66.6078 35.0819 66.6447C35.1672 66.6816 35.2602 66.6973 35.3529 66.6904C35.8673 66.6767 36.3846 66.6904 36.9018 66.6904C37.2677 66.6904 37.287 66.7124 37.2787 67.0896C37.2787 67.1336 37.2787 67.1776 37.2787 67.2217C37.2792 67.2465 37.2745 67.2711 37.265 67.294C37.2555 67.3169 37.2415 67.3377 37.2237 67.355C37.2059 67.3722 37.1848 67.3857 37.1616 67.3945C37.1384 67.4033 37.1137 67.4072 37.0889 67.4061H36.7918H33.2894H33.0583C33.0143 67.4061 32.9593 67.3868 32.951 67.3456C32.9084 67.1524 32.9084 66.9523 32.951 66.7592C32.9675 66.6849 33.0583 66.6932 33.1216 66.6932L33.7351 66.6959Z" fill="white"/>
<path d="M12.0094 40.936C12.2102 41.2113 12.4001 41.3847 12.5596 41.5802C13.0164 42.1142 13.5033 42.6207 13.971 43.1437C14.6203 43.8731 15.2586 44.6081 15.8969 45.3458C16.3729 45.8771 16.8599 46.3973 17.3358 46.9286C17.8118 47.4599 18.2465 47.9664 18.7115 48.4811C18.849 48.638 18.9866 48.7867 19.1462 48.9325C19.168 48.9476 19.1862 48.9673 19.1994 48.9903C19.2126 49.0134 19.2204 49.0391 19.2222 49.0655C19.2241 49.092 19.2199 49.1185 19.2101 49.1432C19.2003 49.1678 19.185 49.1899 19.1654 49.2078C19.083 49.3239 19.0067 49.4442 18.9371 49.5684C18.8078 49.7694 18.6812 49.7914 18.5216 49.6042C18.3621 49.417 18.1557 49.1968 17.9714 48.9931C17.3469 48.2912 16.7278 47.5782 16.1005 46.8736C15.8969 46.6451 15.6878 46.4221 15.4842 46.1909C14.8239 45.4422 14.1389 44.7182 13.4813 43.9667C12.9311 43.3501 12.3808 42.7473 11.8443 42.1252C11.5679 41.8432 11.3071 41.5464 11.063 41.2361C10.9941 41.1303 10.8971 41.046 10.7828 40.9925C10.6686 40.939 10.5417 40.9185 10.4164 40.9333C9.91293 40.9608 9.4067 40.9333 8.90046 40.9333C8.59232 40.9333 8.57306 40.9085 8.57031 40.5892C8.57031 40.5452 8.57031 40.5011 8.57031 40.4598C8.57031 40.2259 8.57031 40.2176 8.81518 40.2148H12.6669C12.8981 40.2148 12.9008 40.2148 12.9118 40.4571V40.4901C12.9118 40.9223 12.9118 40.9333 12.4826 40.936H12.0094Z" fill="white"/>
<path d="M34.2721 83.0225C33.4479 83.0853 32.6201 83.0853 31.7959 83.0225C31.7794 82.9289 31.8647 82.9234 31.9143 82.8931C32.0143 82.8356 32.0965 82.7512 32.1514 82.6496C32.2063 82.548 32.2318 82.4331 32.2251 82.3178C32.2251 80.602 32.2251 78.8861 32.2251 77.1703C32.2251 76.8593 32.2251 76.8593 31.9143 76.8565H31.287C31.044 76.8561 30.8053 76.9201 30.5951 77.0419C30.3849 77.1638 30.2107 77.3391 30.0902 77.5502C30.0599 77.5942 30.0406 77.6465 30.0104 77.6933C29.9801 77.7401 29.9554 77.7649 29.9031 77.7484C29.8508 77.7319 29.8481 77.6823 29.8536 77.641C29.8701 77.5337 29.8948 77.4263 29.9113 77.319C29.9388 77.1455 29.9581 76.9721 29.9911 76.7987C30.0406 76.5537 30.0654 76.5234 30.3185 76.5234H35.5487C35.9008 76.5234 35.9173 76.54 35.9641 76.8758C35.9971 77.0932 36.0329 77.3079 36.0714 77.5227C36.0714 77.597 36.1319 77.6961 36.0522 77.7319C35.9724 77.7676 35.9201 77.6493 35.8788 77.5805C35.7884 77.4166 35.6665 77.2722 35.5201 77.1555C35.3737 77.0388 35.2058 76.9522 35.0259 76.9006C34.636 76.8355 34.2395 76.8198 33.8456 76.8538C33.7686 76.8538 33.7301 76.9116 33.7273 76.9859C33.7246 77.0602 33.7273 77.1593 33.7273 77.2474C33.7273 78.8439 33.7273 80.4377 33.7273 82.0343C33.6988 82.2358 33.7364 82.4412 33.8347 82.6194C33.933 82.7977 34.0865 82.9391 34.2721 83.0225Z" fill="white"/>
<path d="M50.1985 83.0457C50.2288 82.93 50.3196 82.9218 50.3773 82.875C50.4777 82.7986 50.5583 82.6992 50.6124 82.5852C50.6664 82.4713 50.6925 82.346 50.6882 82.2199C50.6772 80.616 50.6772 79.0102 50.6882 77.4027C50.7026 77.2545 50.6703 77.1056 50.5958 76.9767C50.5213 76.8479 50.4083 76.7456 50.2728 76.6842C50.2343 76.665 50.1958 76.643 50.1875 76.5934C50.9956 76.5082 51.8101 76.5008 52.6196 76.5714C52.6416 76.665 52.5563 76.6732 52.5068 76.7035C52.3855 76.7699 52.286 76.8698 52.2201 76.9914C52.1542 77.113 52.1248 77.251 52.1354 77.3889V80.1609C52.1354 80.9399 52.1354 81.7216 52.1354 82.5034C52.1354 82.7952 52.1354 82.7979 52.427 82.7979C53.4478 82.7979 54.4712 82.8144 55.4947 82.7979C55.7488 82.8158 56.0023 82.7561 56.2219 82.6269C56.4414 82.4976 56.6167 82.3049 56.7245 82.074L56.7548 82.0134C56.7878 81.9611 56.8181 81.8758 56.8951 81.9143C56.9721 81.9528 56.9226 82.0244 56.9143 82.0877C56.8758 82.3245 56.8456 82.5639 56.8015 82.8007C56.7575 83.0374 56.7273 83.0759 56.5127 83.0759H50.2783C50.2509 83.068 50.2242 83.0579 50.1985 83.0457Z" fill="white"/>
<path d="M58.5243 50.457V55.2577C58.3843 54.8252 58.141 54.4335 57.8155 54.1164C57.4899 53.7994 57.092 53.5665 56.6562 53.4382C56.1078 53.2481 55.5306 53.155 54.9504 53.1629C53.2363 53.1629 51.5223 53.1629 49.8083 53.1629C49.7312 53.1629 49.6542 53.1629 49.5772 53.1629C49.4258 53.1629 49.3571 53.1134 49.3598 52.9565C49.3598 52.3399 49.3268 52.4417 49.8303 52.4417C51.6516 52.4417 53.4757 52.4665 55.2998 52.4417C55.8065 52.4504 56.3094 52.3533 56.7765 52.1566C57.2436 51.9599 57.6646 51.668 58.0125 51.2994C58.1976 51.1111 58.3393 50.8847 58.428 50.636C58.4445 50.5644 58.4417 50.4846 58.5243 50.457Z" fill="white"/>
</svg>
