<svg width="26" height="16" viewBox="0 0 26 16" fill="none" xmlns="http://www.w3.org/2000/svg">
<path d="M6.31118 6.29688C4.56339 6.29688 3.15039 7.70988 3.15039 9.45274C3.15039 11.1956 4.56339 12.6086 6.30626 12.6086C8.04912 12.6086 9.46212 11.1956 9.46212 9.45274C9.46705 7.70988 8.05404 6.29688 6.31118 6.29688ZM6.31118 11.7126C5.06557 11.7126 4.05136 10.7033 4.05136 9.45274C4.05136 8.20221 5.06065 7.19292 6.31118 7.19292C7.56171 7.19292 8.56607 8.20713 8.56607 9.45274C8.56607 10.6983 7.55679 11.7126 6.31118 11.7126Z" fill="white"/>
<path d="M6.3225 11.02C7.18989 11.02 7.89305 10.3168 7.89305 9.44945C7.89305 8.58206 7.18989 7.87891 6.3225 7.87891C5.45511 7.87891 4.75195 8.58206 4.75195 9.44945C4.75195 10.3168 5.45511 11.02 6.3225 11.02Z" fill="white"/>
<path d="M18.9156 6.29688C17.1728 6.29688 15.7598 7.70988 15.7598 9.45274C15.7598 11.1956 17.1728 12.6086 18.9156 12.6086C20.6585 12.6086 22.0715 11.1956 22.0715 9.45274C22.0715 7.70988 20.6585 6.29688 18.9156 6.29688ZM18.9156 11.7126C17.67 11.7126 16.6558 10.7033 16.6558 9.45274C16.6558 8.20221 17.6651 7.19292 18.9156 7.19292C20.1662 7.19292 21.1705 8.20713 21.1705 9.45274C21.1705 10.6983 20.1612 11.7126 18.9156 11.7126Z" fill="white"/>
<path d="M18.926 11.02C19.7934 11.02 20.4966 10.3168 20.4966 9.44945C20.4966 8.58206 19.7934 7.87891 18.926 7.87891C18.0586 7.87891 17.3555 8.58206 17.3555 9.44945C17.3555 10.3168 18.0586 11.02 18.926 11.02Z" fill="white"/>
<path d="M23.3575 4.98268L25.2137 3.14126H21.4521C19.3448 1.42784 15.8441 0 12.5995 0C9.34991 0 5.87878 1.42784 3.77148 3.14126H0L1.8562 4.98268C0.708998 6.12496 0 7.70543 0 9.45331C0 12.9392 2.82614 15.7654 6.31205 15.7654C7.91222 15.7654 9.37453 15.1696 10.4873 14.1849L12.6241 15.7555L14.7363 14.2193L14.7117 14.1603C15.8294 15.1548 17.2966 15.7604 18.9115 15.7604C22.3974 15.7604 25.2236 12.9343 25.2236 9.44838C25.2187 7.70543 24.5047 6.12496 23.3575 4.98268ZM18.1188 3.19049C15.1302 3.56468 12.7866 6.02648 12.6093 9.07419C12.4272 6.02156 10.0786 3.55484 7.08013 3.19049C8.58675 2.1073 10.507 1.57555 12.5995 1.57555C14.692 1.57555 16.6122 2.1073 18.1188 3.19049ZM6.31205 14.1898C3.6927 14.1898 1.57555 12.0677 1.57555 9.45331C1.57555 6.83888 3.69762 4.71681 6.31205 4.71681C8.92648 4.71681 11.0486 6.83888 11.0486 9.45331C11.0436 12.0677 8.92648 14.1898 6.31205 14.1898ZM18.9165 14.1898C16.302 14.1898 14.18 12.0677 14.18 9.45331C14.18 6.83888 16.302 4.71681 18.9165 4.71681C21.5309 4.71681 23.653 6.83888 23.653 9.45331C23.648 12.0677 21.5309 14.1898 18.9165 14.1898Z" fill="white"/>
</svg>
