<svg width="22" height="15" viewBox="0 0 22 15" fill="none" xmlns="http://www.w3.org/2000/svg">
<path d="M11.2759 14.9184L6.84545 14.8374C5.41098 14.8092 3.97292 14.8655 2.56657 14.5731C0.427179 14.1359 0.275617 11.993 0.117023 10.1955C-0.101503 7.66837 -0.0169048 5.09539 0.395482 2.58937C0.628287 1.18324 1.54448 0.344181 2.96132 0.252876C7.74422 -0.0784825 12.5589 -0.0392131 17.3312 0.115378C17.8353 0.129549 18.3427 0.207007 18.8397 0.295174C21.2929 0.725194 21.3528 3.15364 21.5118 5.19794C21.6704 7.26333 21.6034 9.33933 21.3003 11.3907C21.0571 13.0891 20.5919 14.5134 18.6282 14.6509C16.1679 14.8308 13.7641 14.9755 11.297 14.9294C11.2971 14.9184 11.283 14.9184 11.2759 14.9184ZM8.67123 10.6184C10.5253 9.55396 12.3439 8.5072 14.1873 7.44984C12.3298 6.38534 10.5146 5.33858 8.67123 4.28122V10.6184Z" fill="white"/>
</svg>
